<svg version="1.1" xmlns="http://www.w3.org/2000/svg" xmlns:xlink="http://www.w3.org/1999/xlink" width="512px" height="512px" viewBox="0,0,512,512"><defs><linearGradient x1="3.504" y1="42.733" x2="71.36" y2="-14.205" gradientUnits="userSpaceOnUse" id="color-1"><stop offset="0" stop-color="#ffffff"/><stop offset="1" stop-color="#262626" stop-opacity="0.8"/></linearGradient><linearGradient x1="40.669" y1="6.331" x2="31.059" y2="15.941" gradientUnits="userSpaceOnUse" id="color-2"><stop offset="0" stop-color="#ffffff"/><stop offset="0.913" stop-color="#262626" stop-opacity="0.8"/></linearGradient><linearGradient x1="-13.796" y1="54.18" x2="36.806" y2="11.72" gradientUnits="userSpaceOnUse" id="color-3"><stop offset="0" stop-color="#ffffff"/><stop offset="1" stop-color="#262626" stop-opacity="0.8"/></linearGradient></defs><g fill="none" fill-rule="nonzero" stroke="none" stroke-width="1" stroke-linecap="butt" stroke-linejoin="miter" stroke-miterlimit="10" stroke-dasharray="" stroke-dashoffset="0" font-family="none" font-weight="none" font-size="none" text-anchor="none" style="mix-blend-mode: normal"><g transform="scale(10.66667,10.66667)"><path d="M43,14v19c0,2.209 -1.791,4 -4,4h-22v-29c0,-2.209 1.791,-4 4,-4h12z" fill="url(#color-1)"/><path d="M33,4v7c0,1.657 1.343,3 3,3h7z" fill="url(#color-2)"/><path d="M31,37v3c0,2.21 -1.79,4 -4,4h-22v-29c0,-2.21 1.79,-4 4,-4h8v26z" fill="url(#color-3)"/></g></g></svg>
