<svg version="1.1" xmlns="http://www.w3.org/2000/svg" xmlns:xlink="http://www.w3.org/1999/xlink"
  width="512px" height="512px" viewBox="0,0,256,256"><defs><linearGradient x1="7.525" y1="7.525" x2="49.366" y2="49.366" gradientUnits="userSpaceOnUse" id="color-1"><stop offset="0" stop-color="#ffffff"></stop><stop offset="1" stop-color="#262626" stop-opacity="0.8"></stop></linearGradient><linearGradient x1="16.41" y1="14.955" x2="27.441" y2="28.1" gradientUnits="userSpaceOnUse" id="color-2"><stop offset="0" stop-color="#ffffff"></stop><stop offset="1" stop-color="#262626" stop-opacity="0.8"></stop></linearGradient></defs><g fill="none" fill-rule="nonzero" stroke="none" stroke-width="1" stroke-linecap="butt" stroke-linejoin="miter" stroke-miterlimit="10" stroke-dasharray="" stroke-dashoffset="0" font-family="none" font-weight="none" font-size="none" text-anchor="none" style="mix-blend-mode: normal"><g transform="scale(5.33333,5.33333)"><path d="M25.04,32.3c0,1.87 -0.73,3.63 -2.05,4.95l-10.69,10.69l-7.29,-7.29c-1.32,-1.32 -2.05,-3.08 -2.05,-4.95c0,-1.87 0.73,-3.63 2.05,-4.95l10.69,-10.69l4.24,4.24l-4.12,4.12c-0.04,0.04 -0.08,0.09 -0.11,0.13l-0.01,-0.01l-6.45,6.45c-0.25,0.26 -0.29,0.55 -0.29,0.71c0,0.15 0.04,0.45 0.29,0.71l3.05,3.05l6.45,-6.45c0.12,-0.13 0.19,-0.26 0.23,-0.38c0.21,-0.12 0.42,-0.27 0.6,-0.45l4.07,-4.07c0.9,1.2 1.39,2.66 1.39,4.19zM42.99,7.35l-7.29,-7.29l-10.69,10.69c-1.32,1.32 -2.05,3.08 -2.05,4.95c0,1.53 0.49,2.99 1.39,4.19l4.07,-4.07c0.18,-0.18 0.39,-0.33 0.6,-0.45c0.04,-0.12 0.11,-0.25 0.23,-0.38l6.45,-6.45l3.05,3.05c0.25,0.26 0.29,0.56 0.29,0.71c0,0.16 -0.04,0.45 -0.29,0.71l-6.45,6.45l-0.01,-0.01c-0.03,0.04 -0.07,0.09 -0.11,0.13l-4.12,4.12l4.24,4.24l10.69,-10.69c1.32,-1.32 2.05,-3.08 2.05,-4.95c0,-1.87 -0.73,-3.63 -2.05,-4.95z" fill="url(#color-1)"></path><path d="M17.7,32.955c-0.68,0 -1.359,-0.26 -1.877,-0.778c-1.037,-1.036 -1.037,-2.718 0,-3.754l12.6,-12.6c1.035,-1.037 2.719,-1.037 3.754,0c1.037,1.036 1.037,2.718 0,3.754l-12.6,12.6c-0.517,0.518 -1.197,0.778 -1.877,0.778z" fill="url(#color-2)"></path></g></g></svg>
