<svg version="1.1" xmlns="http://www.w3.org/2000/svg" xmlns:xlink="http://www.w3.org/1999/xlink" width="512px" height="512px" viewBox="0,0,256,256"><defs><linearGradient x1="-0.344" y1="57.323" x2="40.941" y2="33.487" gradientUnits="userSpaceOnUse" id="color-1"><stop offset="0" stop-color="#ffffff"></stop><stop offset="1" stop-color="#262626" stop-opacity="0.8"></stop></linearGradient><linearGradient x1="0.523" y1="17.095" x2="74.718" y2="44.099" gradientUnits="userSpaceOnUse" id="color-2"><stop offset="0" stop-color="#ffffff"></stop><stop offset="1" stop-color="#262626" stop-opacity="0.8"></stop></linearGradient><linearGradient x1="18.01039" y1="23.64446" x2="28.90974" y2="42.52279" gradientUnits="userSpaceOnUse" id="color-3"><stop offset="0" stop-color="#ffffff"></stop><stop offset="1" stop-color="#262626" stop-opacity="0.8"></stop></linearGradient><linearGradient x1="23.033" y1="17.515" x2="25.398" y2="30.928" gradientUnits="userSpaceOnUse" id="color-4"><stop offset="0" stop-color="#ffffff"></stop><stop offset="1" stop-color="#262626" stop-opacity="0.8"></stop></linearGradient><linearGradient x1="20.958" y1="-4.123" x2="28.308" y2="16.071" gradientUnits="userSpaceOnUse" id="color-5"><stop offset="0" stop-color="#ffffff"></stop><stop offset="1" stop-color="#262626" stop-opacity="0.8"></stop></linearGradient><linearGradient x1="2.66983" y1="5.97253" x2="22.14653" y2="15.05427" gradientUnits="userSpaceOnUse" id="color-6"><stop offset="0" stop-color="#ffffff"></stop><stop offset="1" stop-color="#262626" stop-opacity="0.8"></stop></linearGradient><linearGradient x1="-3.123" y1="26.042" x2="17.071" y2="18.692" gradientUnits="userSpaceOnUse" id="color-7"><stop offset="0" stop-color="#ffffff"></stop><stop offset="1" stop-color="#262626" stop-opacity="0.8"></stop></linearGradient><linearGradient x1="6.97179" y1="44.32958" x2="16.05421" y2="24.85319" gradientUnits="userSpaceOnUse" id="color-8"><stop offset="0" stop-color="#ffffff"></stop><stop offset="1" stop-color="#262626" stop-opacity="0.8"></stop></linearGradient><linearGradient x1="41.02821" y1="1.67042" x2="31.94579" y2="21.14681" gradientUnits="userSpaceOnUse" id="color-9"><stop offset="0" stop-color="#ffffff"></stop><stop offset="1" stop-color="#262626" stop-opacity="0.8"></stop></linearGradient><linearGradient x1="51.123" y1="19.958" x2="30.929" y2="27.308" gradientUnits="userSpaceOnUse" id="color-10"><stop offset="0" stop-color="#ffffff"></stop><stop offset="1" stop-color="#262626" stop-opacity="0.8"></stop></linearGradient><linearGradient x1="45.33017" y1="40.02747" x2="25.85347" y2="30.94573" gradientUnits="userSpaceOnUse" id="color-11"><stop offset="0" stop-color="#ffffff"></stop><stop offset="1" stop-color="#262626" stop-opacity="0.8"></stop></linearGradient></defs><g fill="none" fill-rule="nonzero" stroke="none" stroke-width="1" stroke-linecap="butt" stroke-linejoin="miter" stroke-miterlimit="10" stroke-dasharray="" stroke-dashoffset="0" font-family="none" font-weight="none" font-size="none" text-anchor="none" style="mix-blend-mode: normal"><g transform="scale(5.33333,5.33333)"><path d="M30,40h-12v8h8.533c1.915,0 3.467,-1.552 3.467,-3.467z" fill="url(#color-1)"></path><path d="M36.886,22.689c0,-7.249 -6.109,-13.086 -13.508,-12.741c-6.344,0.295 -11.646,5.309 -12.21,11.571c-0.369,4.089 1.217,7.814 3.934,10.379c2.218,2.096 2.898,5.066 2.898,8.102h12c0,-3.062 0.729,-6.028 2.954,-8.155c2.423,-2.315 3.932,-5.558 3.932,-9.156z" fill="url(#color-2)"></path><rect x="22" y="28" width="4" height="12" fill="url(#color-3)"></rect><path d="M25.879,22.121l-1.879,1.879l-1.879,-1.879c-1.172,-1.172 -3.071,-1.172 -4.243,0l-0.878,0.879l5,5h4l5,-5l-0.879,-0.879c-1.171,-1.171 -3.071,-1.171 -4.242,0z" fill="url(#color-4)"></path><path d="M26,6h-4v-6h1c1.657,0 3,1.343 3,3z" fill="url(#color-5)"></path><path d="M13.393,9.565l-2.828,2.828l-4.243,-4.242l0.707,-0.707c1.172,-1.172 3.071,-1.172 4.243,0z" fill="url(#color-6)"></path><path d="M7,21v4h-6v-1c0,-1.657 1.343,-3 3,-3z" fill="url(#color-7)"></path><path d="M10.565,33.607l2.828,2.828l-4.243,4.243l-0.707,-0.707c-1.172,-1.172 -1.172,-3.071 0,-4.243z" fill="url(#color-8)"></path><path d="M37.435,12.393l-2.828,-2.828l4.243,-4.243l0.707,0.707c1.172,1.172 1.172,3.071 0,4.243z" fill="url(#color-9)"></path><path d="M41,25v-4h6v1c0,1.657 -1.343,3 -3,3z" fill="url(#color-10)"></path><path d="M34.607,36.435l2.828,-2.828l4.243,4.243l-0.707,0.707c-1.172,1.172 -3.071,1.172 -4.243,0z" fill="url(#color-11)"></path></g></g></svg>
