<svg version="1.1" xmlns="http://www.w3.org/2000/svg" xmlns:xlink="http://www.w3.org/1999/xlink" width="512px" height="512px" viewBox="0,0,256,256"><defs><linearGradient x1="8.316" y1="-22.12" x2="47.461" y2="85.43" gradientUnits="userSpaceOnUse" id="color-1"><stop offset="0" stop-color="#2e2b54"/><stop offset="1" stop-color="#da619b"/></linearGradient><linearGradient x1="14.273" y1="46.1" x2="33.004" y2="13.658" gradientUnits="userSpaceOnUse" id="color-2"><stop offset="0.005" stop-color="#2e2b54"/><stop offset="1" stop-color="#da619b"/></linearGradient><linearGradient x1="14.461" y1="30.522" x2="32.22" y2="-0.237" gradientUnits="userSpaceOnUse" id="color-3"><stop offset="0" stop-color="#2e2b54"/><stop offset="1" stop-color="#da619b"/></linearGradient></defs><g fill="none" fill-rule="nonzero" stroke="none" stroke-width="1" stroke-linecap="butt" stroke-linejoin="miter" stroke-miterlimit="10" stroke-dasharray="" stroke-dashoffset="0" font-family="none" font-weight="none" font-size="none" text-anchor="none" style="mix-blend-mode: normal"><g transform="scale(5.33333,5.33333)"><path d="M24,47.864c0,0 -13.6,-13.612 -13.619,-13.632c-3.288,-3.458 -5.381,-8.084 -5.381,-13.232c0,-10.493 8.507,-19 19,-19c10.493,0 19,8.507 19,19c0,5.148 -2.093,9.774 -5.381,13.232c-0.019,0.02 -13.619,13.632 -13.619,13.632z" fill="url(#color-1)"/><path d="M24.111,21h-0.222c-4.909,0 -8.889,3.98 -8.889,8.889v1.111h18v-1.111c0,-4.909 -3.98,-8.889 -8.889,-8.889z" fill="url(#color-2)"/><path d="M25,19h-6v-6c0,-2.209 1.791,-4 4,-4h6v6c0,2.209 -1.791,4 -4,4z" fill="url(#color-3)"/></g></g></svg>
