<svg version="1.1" xmlns="http://www.w3.org/2000/svg" xmlns:xlink="http://www.w3.org/1999/xlink" width="512px" height="512px" viewBox="0,0,256,256"><defs><linearGradient x1="18.329" y1="21.42" x2="31.931" y2="58.789" gradientUnits="userSpaceOnUse" id="color-1"><stop offset="0" stop-color="#ffffff"></stop><stop offset="1" stop-color="#262626" stop-opacity="0.8"></stop></linearGradient><linearGradient x1="20.34" y1="6.928" x2="32.319" y2="39.841" gradientUnits="userSpaceOnUse" id="color-2"><stop offset="0" stop-color="#ffffff"></stop><stop offset="1" stop-color="#262626" stop-opacity="0.8"></stop></linearGradient><linearGradient x1="10.855" y1="-19.137" x2="31.249" y2="36.896" gradientUnits="userSpaceOnUse" id="color-3"><stop offset="0" stop-color="#ffffff"></stop><stop offset="1" stop-color="#262626" stop-opacity="0.8"></stop></linearGradient></defs><g fill="none" fill-rule="nonzero" stroke="none" stroke-width="1" stroke-linecap="butt" stroke-linejoin="miter" stroke-miterlimit="10" stroke-dasharray="" stroke-dashoffset="0" font-family="none" font-weight="none" font-size="none" text-anchor="none" style="mix-blend-mode: normal"><g transform="scale(5.33333,5.33333)"><path d="M46,37c0,4.42 -9.85,8 -22,8c-12.15,0 -22,-3.58 -22,-8c0,-3.49 6.13,-6.45 14.67,-7.54c2.98,2.97 7.33,7.33 7.33,7.33c0,0 4.35,-4.36 7.33,-7.33c8.54,1.09 14.67,4.05 14.67,7.54z" fill="url(#color-1)"></path><circle cx="24" cy="16.984" r="5.984" fill="url(#color-2)"></circle><path d="M24,36.794c0,0 -10.021,-10.03 -10.035,-10.044c-2.422,-2.548 -3.965,-5.957 -3.965,-9.75c0,-7.731 6.269,-14 14,-14c7.731,0 14,6.269 14,14c0,3.793 -1.543,7.202 -3.965,9.75c-0.014,0.014 -10.035,10.044 -10.035,10.044zM24,11c-3.305,0 -5.984,2.679 -5.984,5.984c0,3.305 2.679,5.984 5.984,5.984c3.305,0 5.984,-2.679 5.984,-5.984c0,-3.305 -2.679,-5.984 -5.984,-5.984z" fill="url(#color-3)"></path></g></g></svg>
