<svg version="1.1" xmlns="http://www.w3.org/2000/svg" xmlns:xlink="http://www.w3.org/1999/xlink" width="512px" height="512px" viewBox="0,0,512,512"><defs><linearGradient x1="44.11" y1="-7.182" x2="6.772" y2="57.489" gradientUnits="userSpaceOnUse" id="color-1"><stop offset="0" stop-color="#2e2b54"/><stop offset="1" stop-color="#da619b"/></linearGradient><linearGradient x1="-14.01856" y1="15.28379" x2="21.74341" y2="8.97533" gradientUnits="userSpaceOnUse" id="color-2"><stop offset="0" stop-color="#2e2b54"/><stop offset="1" stop-color="#da619b"/></linearGradient></defs><g fill="none" fill-rule="nonzero" stroke="none" stroke-width="1" stroke-linecap="butt" stroke-linejoin="miter" stroke-miterlimit="10" stroke-dasharray="" stroke-dashoffset="0" font-family="none" font-weight="none" font-size="none" text-anchor="none" style="mix-blend-mode: normal"><g transform="scale(10.66667,10.66667)"><path d="M25.087,44.971c-11.52,0.613 -21.087,-8.583 -21.087,-19.971h3.27c1.472,0 2.693,1.074 2.958,2.522c1.283,7.021 7.82,12.23 15.373,11.388c6.405,-0.714 11.596,-5.905 12.31,-12.31c0.94,-8.433 -5.664,-15.6 -13.911,-15.6c-2.293,0 -4.564,0.565 -6.571,1.634l-2.822,-5.295c2.872,-1.53 6.12,-2.339 9.393,-2.339c11.389,0 20.585,9.569 19.971,21.089c-0.538,10.085 -8.799,18.346 -18.884,18.882z" fill="url(#color-1)"/><path d="M6.307,15.154l13.355,1.688l-7.286,-13.704z" fill="url(#color-2)"/></g></g></svg>
