<svg version="1.1" xmlns="http://www.w3.org/2000/svg" xmlns:xlink="http://www.w3.org/1999/xlink" width="512px" height="512px" viewBox="0,0,256,256"><defs><linearGradient x1="-26.247" y1="-26.248" x2="46.569" y2="46.567" gradientUnits="userSpaceOnUse" id="color-1"><stop offset="0" stop-color="#ffffff"></stop><stop offset="1" stop-color="#262626" stop-opacity="0.8"></stop></linearGradient><linearGradient x1="31.296" y1="14.6" x2="14.877" y2="59.711" gradientUnits="userSpaceOnUse" id="color-2"><stop offset="0" stop-color="#ffffff"></stop><stop offset="1" stop-color="#262626" stop-opacity="0.8"></stop></linearGradient><linearGradient x1="13.654" y1="20.681" x2="54.429" y2="-13.533" gradientUnits="userSpaceOnUse" id="color-3"><stop offset="0" stop-color="#ffffff"></stop><stop offset="1" stop-color="#262626" stop-opacity="0.8"></stop></linearGradient><linearGradient x1="23.383" y1="5.883" x2="33.974" y2="16.474" gradientUnits="userSpaceOnUse" id="color-4"><stop offset="0" stop-color="#ffffff"></stop><stop offset="1" stop-color="#262626" stop-opacity="0.8"></stop></linearGradient></defs><g fill="none" fill-rule="nonzero" stroke="none" stroke-width="1" stroke-linecap="butt" stroke-linejoin="miter" stroke-miterlimit="10" stroke-dasharray="" stroke-dashoffset="0" font-family="none" font-weight="none" font-size="none" text-anchor="none" style="mix-blend-mode: normal"><g transform="scale(5.33333,5.33333)"><path d="M42,12v30h-6v-18h-20c-2.209,0 -4,1.791 -4,4v14c-3.31,0 -6,-2.69 -6,-6v-30h8v9c0,1.657 1.343,3 3,3h17v-12h2c3.314,0 6,2.686 6,6z" fill="url(#color-1)"></path><path d="M12,42v-14c0,-2.209 1.791,-4 4,-4h20v18z" fill="url(#color-2)"></path><path d="M34,18h-17c-1.657,0 -3,-1.343 -3,-3v-9h20z" fill="url(#color-3)"></path><rect x="26" y="6" width="4" height="9" fill="url(#color-4)"></rect></g></g></svg>