<svg version="1.1" xmlns="http://www.w3.org/2000/svg" xmlns:xlink="http://www.w3.org/1999/xlink" width="512px" height="512px" viewBox="0,0,512,512"><defs><linearGradient x1="-5.503" y1="52.965" x2="63.838" y2="-15.111" gradientUnits="userSpaceOnUse" id="color-1"><stop offset="0" stop-color="#2e2b54"/><stop offset="1" stop-color="#da619b"/></linearGradient><linearGradient x1="10.499" y1="10.499" x2="37.219" y2="37.219" gradientUnits="userSpaceOnUse" id="color-2"><stop offset="0" stop-color="#2e2b54"/><stop offset="1" stop-color="#da619b"/></linearGradient></defs><g fill="none" fill-rule="nonzero" stroke="none" stroke-width="1" stroke-linecap="butt" stroke-linejoin="miter" stroke-miterlimit="10" stroke-dasharray="" stroke-dashoffset="0" font-family="none" font-weight="none" font-size="none" text-anchor="none" style="mix-blend-mode: normal"><g transform="scale(10.66667,10.66667)"><path d="M41.426,19.561c-0.43,-1.691 -1.094,-3.284 -1.965,-4.746l1.67,-4.268c0.332,-0.848 0.13,-1.813 -0.514,-2.457l-1.768,-1.768l-5.666,2.217c-1.462,-0.87 -3.054,-1.535 -4.745,-1.965l-1.838,-4.2c-0.364,-0.835 -1.189,-1.374 -2.1,-1.374h-2.5l-2.439,5.574c-1.691,0.43 -3.284,1.094 -4.746,1.965l-4.268,-1.67c-0.848,-0.332 -1.813,-0.13 -2.457,0.514l-1.768,1.768l2.217,5.666c-0.87,1.462 -1.535,3.054 -1.965,4.745l-4.2,1.838c-0.835,0.364 -1.374,1.189 -1.374,2.1v2.5l5.574,2.439c0.43,1.691 1.094,3.284 1.965,4.746l-1.67,4.268c-0.332,0.849 -0.13,1.813 0.514,2.458l1.768,1.768l5.666,-2.217c1.462,0.87 3.054,1.535 4.745,1.965l1.838,4.2c0.364,0.834 1.189,1.373 2.1,1.373h2.5l2.439,-5.574c1.691,-0.43 3.284,-1.094 4.746,-1.965l4.268,1.67c0.849,0.332 1.813,0.13 2.458,-0.514l1.768,-1.768l-2.217,-5.666c0.87,-1.462 1.535,-3.054 1.965,-4.745l4.2,-1.838c0.834,-0.364 1.373,-1.189 1.373,-2.1v-2.5z" fill="url(#color-1)"/><path d="M34,24c0,5.522 -4.478,10 -10,10c-5.522,0 -10,-4.478 -10,-10c0,-5.522 4.477,-10 10,-10c5.523,0 10,4.478 10,10z" fill="url(#color-2)"/></g></g></svg>
