<svg version="1.1" xmlns="http://www.w3.org/2000/svg" xmlns:xlink="http://www.w3.org/1999/xlink" width="512px" height="512px" viewBox="0,0,256,256"><defs><linearGradient x1="0.741" y1="45.615" x2="81.114" y2="-21.827" gradientUnits="userSpaceOnUse" id="color-1"><stop offset="0" stop-color="#2e2b54"/><stop offset="1" stop-color="#da619b"/></linearGradient><linearGradient x1="7.594" y1="5.484" x2="26.473" y2="57.352" gradientUnits="userSpaceOnUse" id="color-2"><stop offset="0" stop-color="#2e2b54"/><stop offset="1" stop-color="#da619b"/></linearGradient></defs><g fill="none" fill-rule="nonzero" stroke="none" stroke-width="1" stroke-linecap="butt" stroke-linejoin="miter" stroke-miterlimit="10" stroke-dasharray="" stroke-dashoffset="0" font-family="none" font-weight="none" font-size="none" text-anchor="none" style="mix-blend-mode: normal"><g transform="scale(5.33333,5.33333)"><path d="M42,5v33c0,2.76 -2.24,5 -5,5c-2.76,0 -5,-2.24 -5,-5v-1c0,-2.76 -2.24,-5 -5,-5h-16v-22c0,-2.76 2.24,-5 5,-5z" fill="url(#color-1)"/><path d="M4,38v-6h23c2.761,0 5,2.239 5,5v1c0,2.761 2.239,5 5,5h-28c-2.761,0 -5,-2.239 -5,-5z" fill="url(#color-2)"/></g></g></svg>
