<svg version="1.1" xmlns="http://www.w3.org/2000/svg" xmlns:xlink="http://www.w3.org/1999/xlink" width="512px" height="512px" viewBox="0,0,256,256"><defs><linearGradient x1="20.597" y1="-0.403" x2="49.342" y2="28.342" gradientUnits="userSpaceOnUse" id="color-1"><stop offset="0" stop-color="#ffffff"></stop><stop offset="1" stop-color="#262626" stop-opacity="0.8"></stop></linearGradient><linearGradient x1="20.597" y1="11.597" x2="49.342" y2="40.342" gradientUnits="userSpaceOnUse" id="color-2"><stop offset="0" stop-color="#ffffff"></stop><stop offset="1" stop-color="#262626" stop-opacity="0.8"></stop></linearGradient><linearGradient x1="21.171" y1="24.171" x2="46.548" y2="49.548" gradientUnits="userSpaceOnUse" id="color-3"><stop offset="0" stop-color="#ffffff"></stop><stop offset="1" stop-color="#262626" stop-opacity="0.8"></stop></linearGradient><linearGradient x1="4.928" y1="1.928" x2="30.306" y2="27.306" gradientUnits="userSpaceOnUse" id="color-4"><stop offset="0" stop-color="#ffffff"></stop><stop offset="1" stop-color="#262626" stop-opacity="0.8"></stop></linearGradient><linearGradient x1="2.597" y1="11.597" x2="31.342" y2="40.342" gradientUnits="userSpaceOnUse" id="color-5"><stop offset="0" stop-color="#ffffff"></stop><stop offset="1" stop-color="#262626" stop-opacity="0.8"></stop></linearGradient><linearGradient x1="2.597" y1="23.597" x2="31.342" y2="52.342" gradientUnits="userSpaceOnUse" id="color-6"><stop offset="0" stop-color="#ffffff"></stop><stop offset="1" stop-color="#262626" stop-opacity="0.8"></stop></linearGradient></defs><g fill="none" fill-rule="nonzero" stroke="none" stroke-width="1" stroke-linecap="butt" stroke-linejoin="miter" stroke-miterlimit="10" stroke-dasharray="" stroke-dashoffset="0" font-family="none" font-weight="none" font-size="none" text-anchor="none" style="mix-blend-mode: normal"><g transform="scale(5.33333,5.33333)"><rect x="24" y="6" width="18" height="12" fill="url(#color-1)"></rect><rect x="24" y="18" width="18" height="12" fill="url(#color-2)"></rect><path d="M42,30v6c0,3.314 -2.686,6 -6,6h-12v-12z" fill="url(#color-3)"></path><path d="M24,6v12h-18v-6c0,-3.314 2.686,-6 6,-6z" fill="url(#color-4)"></path><rect x="6" y="18" width="18" height="12" fill="url(#color-5)"></rect><rect x="6" y="30" width="18" height="12" fill="url(#color-6)"></rect></g></g></svg>
