<svg version="1.1" xmlns="http://www.w3.org/2000/svg" xmlns:xlink="http://www.w3.org/1999/xlink" width="512px" height="512px" viewBox="0,0,256,256"><defs><linearGradient x1="15.496" y1="10.909" x2="30.729" y2="2.115" gradientUnits="userSpaceOnUse" id="color-1"><stop offset="0" stop-color="#ffffff"></stop><stop offset="1" stop-color="#262626" stop-opacity="0.8"></stop></linearGradient><linearGradient x1="12.777" y1="34.553" x2="26.269" y2="39.464" gradientUnits="userSpaceOnUse" id="color-2"><stop offset="0" stop-color="#ffffff"></stop><stop offset="1" stop-color="#262626" stop-opacity="0.8"></stop></linearGradient><linearGradient x1="-0.263" y1="11.719" x2="25.383" y2="21.053" gradientUnits="userSpaceOnUse" id="color-3"><stop offset="0" stop-color="#ffffff"></stop><stop offset="1" stop-color="#262626" stop-opacity="0.8"></stop></linearGradient><linearGradient x1="42.964" y1="8.206" x2="27.788" y2="23.381" gradientUnits="userSpaceOnUse" id="color-4"><stop offset="0" stop-color="#ffffff"></stop><stop offset="1" stop-color="#262626" stop-opacity="0.8"></stop></linearGradient><linearGradient x1="20.805" y1="3.565" x2="28.508" y2="43.193" gradientUnits="userSpaceOnUse" id="color-5"><stop offset="0" stop-color="#ffffff"></stop><stop offset="1" stop-color="#262626" stop-opacity="0.8"></stop></linearGradient><linearGradient x1="24.984" y1="18.911" x2="32.468" y2="57.416" gradientUnits="userSpaceOnUse" id="color-6"><stop offset="0" stop-color="#ffffff"></stop><stop offset="1" stop-color="#262626" stop-opacity="0.8"></stop></linearGradient><linearGradient x1="23.478" y1="4.455" x2="30.764" y2="41.937" gradientUnits="userSpaceOnUse" id="color-7"><stop offset="0" stop-color="#ffffff"></stop><stop offset="1" stop-color="#262626" stop-opacity="0.8"></stop></linearGradient></defs><g fill="none" fill-rule="nonzero" stroke="none" stroke-width="1" stroke-linecap="butt" stroke-linejoin="miter" stroke-miterlimit="10" stroke-dasharray="" stroke-dashoffset="0" font-family="none" font-weight="none" font-size="none" text-anchor="none" style="mix-blend-mode: normal"><g transform="scale(5.33333,5.33333)"><path d="M28,7c0,1.657 -1.343,3 -3,3h-5v-5c0,-1.657 1.343,-3 3,-3h5z" fill="url(#color-1)"></path><path d="M19,28h5l-4,18h-5z" fill="url(#color-2)"></path><path d="M4,18.305v1.695l15,-4v-4l-12.773,3.406c-1.313,0.35 -2.227,1.54 -2.227,2.899z" fill="url(#color-3)"></path><path d="M44,16l-15,-4v4l11.227,2.994c1.905,0.508 3.773,-0.928 3.773,-2.899z" fill="url(#color-4)"></path><rect x="19" y="12" width="10" height="16" fill="url(#color-5)"></rect><path d="M29,28h-5l3.478,15.651c0.305,1.372 1.522,2.349 2.929,2.349h2.593z" fill="url(#color-6)"></path><rect x="24" y="12" width="5" height="16" fill="url(#color-7)"></rect></g></g></svg>
