<svg version="1.1" xmlns="http://www.w3.org/2000/svg" xmlns:xlink="http://www.w3.org/1999/xlink" width="512px" height="512px" viewBox="0,0,512,512"><defs><linearGradient x1="-9.533" y1="46.516" x2="67.842" y2="1.843" gradientUnits="userSpaceOnUse" id="color-1"><stop offset="0" stop-color="#2e2b54"/><stop offset="1" stop-color="#da619b"/></linearGradient><linearGradient x1="24" y1="-19.323" x2="24" y2="10.755" gradientUnits="userSpaceOnUse" id="color-2"><stop offset="0" stop-color="#2e2b54"/><stop offset="1" stop-color="#da619b"/></linearGradient><linearGradient x1="24" y1="0.595" x2="24" y2="59.394" gradientUnits="userSpaceOnUse" id="color-3"><stop offset="0" stop-color="#2e2b54"/><stop offset="1" stop-color="#da619b"/></linearGradient><linearGradient x1="-2.683" y1="-36.716" x2="35.509" y2="29.435" gradientUnits="userSpaceOnUse" id="color-4"><stop offset="0" stop-color="#2e2b54"/><stop offset="1" stop-color="#da619b"/></linearGradient></defs><g fill="none" fill-rule="nonzero" stroke="none" stroke-width="1" stroke-linecap="butt" stroke-linejoin="miter" stroke-miterlimit="10" stroke-dasharray="" stroke-dashoffset="0" font-family="none" font-weight="none" font-size="none" text-anchor="none" style="mix-blend-mode: normal"><g transform="scale(10.66667,10.66667)"><path d="M39,11.87v28.13c0,2.21 -1.79,4 -4,4h-26v-32h29c0.35,0 0.68,-0.04 1,-0.13z" fill="url(#color-1)"/><path d="M30,7h-12v-2c0,-1.657 1.343,-3 3,-3h9z" fill="url(#color-2)"/><path d="M26,40h-4v-22c0,-1.105 0.895,-2 2,-2v0c1.105,0 2,0.895 2,2zM34,18c0,-1.105 -0.895,-2 -2,-2v0c-1.105,0 -2,0.895 -2,2v22h4zM18,18c0,-1.105 -0.895,-2 -2,-2v0c-1.105,0 -2,0.895 -2,2v22h4z" fill="url(#color-3)"/><path d="M38,12h-32v-1c0,-2.209 1.791,-4 4,-4h32v1c0,2.209 -1.791,4 -4,4z" fill="url(#color-4)"/></g></g></svg>
