<svg version="1.1" xmlns="http://www.w3.org/2000/svg" xmlns:xlink="http://www.w3.org/1999/xlink" width="512px" height="512px" viewBox="0,0,256,256"><defs><linearGradient x1="29.33583" y1="13.76624" x2="23.32085" y2="1.04459" gradientUnits="userSpaceOnUse" id="color-1"><stop offset="0" stop-color="#ffffff"></stop><stop offset="1" stop-color="#262626" stop-opacity="0.8"></stop></linearGradient><linearGradient x1="39.082" y1="26.67" x2="25.39" y2="18.765" gradientUnits="userSpaceOnUse" id="color-2"><stop offset="0" stop-color="#ffffff"></stop><stop offset="1" stop-color="#262626" stop-opacity="0.8"></stop></linearGradient><linearGradient x1="5.959" y1="54.347" x2="21.39" y2="27.62" gradientUnits="userSpaceOnUse" id="color-3"><stop offset="0" stop-color="#ffffff"></stop><stop offset="1" stop-color="#262626" stop-opacity="0.8"></stop></linearGradient><linearGradient x1="4.393" y1="24.941" x2="21.791" y2="14.895" gradientUnits="userSpaceOnUse" id="color-4"><stop offset="0" stop-color="#ffffff"></stop><stop offset="1" stop-color="#262626" stop-opacity="0.8"></stop></linearGradient><linearGradient x1="17.77" y1="-5.103" x2="28.761" y2="57.225" gradientUnits="userSpaceOnUse" id="color-5"><stop offset="0" stop-color="#ffffff"></stop><stop offset="1" stop-color="#262626" stop-opacity="0.8"></stop></linearGradient></defs><g fill="none" fill-rule="nonzero" stroke="none" stroke-width="1" stroke-linecap="butt" stroke-linejoin="miter" stroke-miterlimit="10" stroke-dasharray="" stroke-dashoffset="0" font-family="none" font-weight="none" font-size="none" text-anchor="none" style="mix-blend-mode: normal"><g transform="scale(5.33333,5.33333)"><path d="M29.616,8.582c-0.42,1.603 -2.06,2.561 -3.663,2.141l-4.837,-1.268l1.268,-4.837c0.42,-1.603 2.06,-2.561 3.663,-2.141l4.837,1.268z" fill="url(#color-1)"></path><path d="M35.54,23.25l-0.78,1.84c-0.44,1.02 -1.61,1.49 -2.63,1.05l-5.62,-2.4l1.28,-5.97c0.15,-0.69 0.11,-1.37 -0.09,-2l1.9,4.94z" fill="url(#color-2)"></path><path d="M22.01,33.53v1.22c0.01,1.07 -0.33,2.11 -0.96,2.97l-6.05,8.28l-1.62,-1.21c-1.32,-0.99 -1.59,-2.86 -0.61,-4.19l4.33,-5.85l-0.11,-9.08l0.01,0.02c0.01,1.58 0.62,3.13 1.73,4.32z" fill="url(#color-3)"></path><path d="M20,12.01l-1.16,4.98l-3.3,1.58l-2.79,6.16l-1.82,-0.83c-1.01,-0.45 -1.46,-1.64 -1,-2.65l2.27,-5c0.19,-0.43 0.53,-0.77 0.96,-0.98z" fill="url(#color-4)"></path><path d="M29.329,35.253l1.671,10.747h-3.125c-0.985,0 -1.824,-0.718 -1.976,-1.692l-1.239,-7.938l-5.934,-6.358c-1.454,-1.558 -2.037,-3.737 -1.556,-5.813l2.83,-12.199l4.721,1.017c2.159,0.465 3.532,2.592 3.068,4.752l-1.879,8.731l3.04,7.392c0.179,0.437 0.307,0.894 0.379,1.361z" fill="url(#color-5)"></path></g></g></svg>
